<svg height="384pt" viewBox="0 0 384 384" width="384pt" xmlns="http://www.w3.org/2000/svg"><path d="m320 0h-256c-35.289062 0-64 28.710938-64 64v64c0 17.648438 14.351562 32 32 32h2.800781c-1.777343 5.015625-2.800781 10.382812-2.800781 16 0 12.304688 4.6875 23.496094 12.320312 32-7.632812 8.503906-12.320312 19.695312-12.320312 32 0 5.617188 1.023438 10.984375 2.800781 16h-2.800781c-17.648438 0-32 14.351562-32 32v32c0 35.289062 28.710938 64 64 64h256c35.289062 0 64-28.710938 64-64v-32c0-17.648438-14.351562-32-32-32h-2.800781c1.785156-5.015625 2.800781-10.382812 2.800781-16 0-12.304688-4.6875-23.496094-12.320312-32 7.632812-8.503906 12.320312-19.695312 12.320312-32 0-5.617188-1.023438-10.984375-2.800781-16h2.800781c17.648438 0 32-14.351562 32-32v-64c0-35.289062-28.710938-64-64-64zm32 320c0 17.648438-14.351562 32-32 32h-256c-17.648438 0-32-14.351562-32-32l-.015625-32h320.015625zm-272-64c-8.824219 0-16-7.175781-16-16s7.175781-16 16-16h224c8.824219 0 16 7.175781 16 16s-7.175781 16-16 16zm240-80c0 8.824219-7.175781 16-16 16h-224c-8.824219 0-16-7.175781-16-16s7.175781-16 16-16h224c8.824219 0 16 7.175781 16 16zm32-48h-320v-64c0-17.648438 14.351562-32 32-32h256c17.648438 0 32 14.351562 32 32zm0 0"/><path d="m104 56h-8c-8.832031 0-16 7.167969-16 16s7.167969 16 16 16h8c8.832031 0 16-7.167969 16-16s-7.167969-16-16-16zm0 0"/><path d="m176 72h-8c-8.832031 0-16 7.167969-16 16s7.167969 16 16 16h8c8.832031 0 16-7.167969 16-16s-7.167969-16-16-16zm0 0"/><path d="m256 56h-8c-8.832031 0-16 7.167969-16 16s7.167969 16 16 16h8c8.832031 0 16-7.167969 16-16s-7.167969-16-16-16zm0 0"/></svg>