<svg height="384pt" viewBox="0 0 384 384" width="384pt" xmlns="http://www.w3.org/2000/svg">
  <defs>
    <style>
      .bun { fill: #1565c0; }
      .patty1 { fill: #e91e63; }
      .patty2 { fill: #f06292; }
      .outline { fill: currentColor; }
      .dots { fill: #00ff41; }
    </style>
  </defs>
  <path d="m368 288v32c0 26.480469-21.519531 48-48 48h-256c-26.480469 0-48-21.519531-48-48v-32c0-8.800781 7.199219-16 16-16h320c8.800781 0 16 7.199219 16 16zm0 0" class="bun"/>
  <path d="m368 64v64c0 8.800781-7.199219 16-16 16h-320c-8.800781 0-16-7.199219-16-16v-64c0-26.480469 21.519531-48 48-48h256c26.480469 0 48 21.519531 48 48zm0 0" class="bun"/>
  <path d="m304 144c17.679688 0 32 14.320312 32 32 0 8.800781-3.601562 16.800781-9.359375 22.640625-5.839844 5.757813-13.839844 9.359375-22.640625 9.359375h-224c-17.679688 0-32-14.320312-32-32 0-8.800781 3.601562-16.800781 9.359375-22.640625 5.839844-5.757813 13.839844-9.359375 22.640625-9.359375zm0 0" class="patty1"/>
  <path d="m304 208c17.679688 0 32 14.320312 32 32 0 8.800781-3.601562 16.800781-9.359375 22.640625-5.839844 5.757813-13.839844 9.359375-22.640625 9.359375h-224c-17.679688 0-32-14.320312-32-32 0-8.800781 3.601562-16.800781 9.359375-22.640625 5.839844-5.757813 13.839844-9.359375 22.640625-9.359375zm0 0" class="patty2"/>
  <g class="outline">
    <path d="m320 0h-256c-35.289062 0-64 28.710938-64 64v64c0 17.648438 14.351562 32 32 32h2.792969c-1.800781 5.089844-2.792969 10.472656-2.792969 16 0 12.289062 4.679688 23.480469 12.304688 31.976562-7.921876 8.886719-12.304688 20.144532-12.304688 32.023438 0 5.617188 1.023438 10.984375 2.800781 16h-2.800781c-17.648438 0-32 14.351562-32 32v32c0 35.289062 28.710938 64 64 64h256c35.289062 0 64-28.710938 64-64v-32c0-17.648438-14.351562-32-32-32h-2.792969c1.800781-5.089844 2.792969-10.472656 2.792969-16 0-12.289062-4.679688-23.480469-12.304688-31.976562 7.921876-8.886719 12.304688-20.144532 12.304688-32.023438 0-5.617188-1.023438-10.984375-2.800781-16h2.800781c17.648438 0 32-14.351562 32-32v-64c0-35.289062-28.710938-64-64-64zm32 320c0 17.648438-14.351562 32-32 32h-256c-17.648438 0-32-14.351562-32-32v-32h320zm-272-64c-8.824219 0-16-7.175781-16-16 0-4.246094 1.6875-8.296875 4.59375-11.246094 3.109375-3.066406 7.160156-4.753906 11.40625-4.753906h224c8.824219 0 16 7.175781 16 16 0 4.246094-1.6875 8.296875-4.59375 11.246094-3.109375 3.066406-7.160156 4.753906-11.40625 4.753906zm240-80c0 4.246094-1.6875 8.296875-4.59375 11.246094-3.109375 3.066406-7.160156 4.753906-11.40625 4.753906h-224c-8.824219 0-16-7.175781-16-16 0-4.246094 1.6875-8.296875 4.59375-11.246094 3.109375-3.066406 7.160156-4.753906 11.40625-4.753906h224c8.824219 0 16 7.175781 16 16zm32-48h-320v-64c0-17.648438 14.351562-32 32-32h256c17.648438 0 32 14.351562 32 32zm0 0"/>
    <path d="m104 56h-8c-8.832031 0-16 7.167969-16 16s7.167969 16 16 16h8c8.832031 0 16-7.167969 16-16s-7.167969-16-16-16zm0 0" class="dots"/>
    <path d="m176 72h-8c-8.832031 0-16 7.167969-16 16s7.167969 16 16 16h8c8.832031 0 16-7.167969 16-16s-7.167969-16-16-16zm0 0" class="dots"/>
    <path d="m256 56h-8c-8.832031 0-16 7.167969-16 16s7.167969 16 16 16h8c8.832031 0 16-7.167969 16-16s-7.167969-16-16-16zm0 0" class="dots"/>
  </g>
</svg>