<svg id="Layer_1" enable-background="new 0 0 66 66" viewBox="0 0 66 66" xmlns="http://www.w3.org/2000/svg"><g><g><g><path d="m58.8 29.1v4.4h-13.3v-.7c0-1.5-.8-2.8-1.9-3.7z"/></g><g><path d="m64.5 8.4-5-6.9c-.2-.3-.5-.5-.8-.5h-19.7c-.3 0-.6.2-.8.4l-4.7 6.9h31z"/></g><g><path d="m50 41.4h8.8v4.4h-8.8z"/></g><g><path d="m33 10.4v17.9h4.2v-.2c0-.6.4-1 1-1h21.6c.5 0 1 .4 1 1v6.4c0 .6-.5 1-1 1h-14.3v27c0 .9-.3 1.8-.7 2.5h19.2c.6 0 1-.5 1-1v-53.6zm27.8 36.4c0 .6-.5 1-1 1h-10.8c-.6 0-1-.4-1-1v-6.4c0-.5.4-1 1-1h10.8c.5 0 1 .5 1 1zm0-24.7c0 .6-.5 1-1 1h-21.6c-.6 0-1-.4-1-1v-6.4c0-.5.4-1 1-1h21.6c.5 0 1 .5 1 1z"/></g><g><path d="m39.2 16.7h19.6v4.4h-19.6z"/></g></g><g><g><path d="m43.5 56.2v-23.5c0-1.4-1.1-2.5-2.5-2.5h-37.5c-1.4 0-2.5 1.1-2.5 2.5v23.5zm-17-5.5c0 .6-.4 1-1 1h-11.4c-.6 0-1-.4-1-1s.4-1 1-1h11.4c.6 0 1 .5 1 1zm-19.2-12.1c-.5-.3-.6-.9-.3-1.4s.9-.6 1.4-.3l7.8 5.2c.3.2.4.5.4.8s-.2.6-.4.8l-7.8 5.3c-.2.1-.4.2-.6.2-.3 0-.6-.2-.8-.4-.3-.5-.2-1.1.3-1.4l6.6-4.4z"/></g><g><path d="m1 58.2v4.3c0 1.3 1.1 2.5 2.5 2.5h37.5c1.4 0 2.5-1.1 2.5-2.5v-4.3zm36 3.3h-.4c-.6 0-1-.4-1-1s.4-1 1-1h.4c.6 0 1 .4 1 1 0 .5-.4 1-1 1z"/></g></g></g></svg>