<svg id="Capa_1" enable-background="new 0 0 513.032 513.032" height="512" viewBox="0 0 513.032 513.032" width="512" xmlns="http://www.w3.org/2000/svg"><path d="m421.133 73.282h-1.436l.454-4.898c.01-.107.019-.214.026-.321 1.412-19.847-5.002-39.485-17.157-52.532-9.332-10.016-21.407-15.531-34.004-15.531-.006 0-.012 0-.017 0l-229.149.092c-12.6.005-24.681 5.528-34.018 15.551-12.157 13.052-18.578 32.69-17.176 52.533.008.107.017.214.026.321l.452 4.901c-18.713 1.419-33.509 17.087-33.509 36.157v22.233c0 20.001 16.272 36.273 36.273 36.273h5.97l30.572 331.349c.712 7.718 7.187 13.622 14.937 13.622h.007l221.879-.096c7.745-.003 14.214-5.903 14.929-13.615l30.716-331.259h10.225c20.001 0 36.273-16.272 36.273-36.273v-22.233c0-20.002-16.272-36.274-36.273-36.274zm-293.349-37.192c2.548-2.735 6.712-5.997 12.077-5.999l229.15-.091h.005c5.357 0 9.513 3.252 12.056 5.981 6.554 7.034 9.985 18.165 9.192 29.802l-.695 7.499h-270.317l-.68-7.371c-.787-11.639 2.652-22.777 9.212-29.821zm234.296 333.644h-215.476l-11.915-129.133h239.365zm-205.023 113.292-7.685-83.292h209.927l-7.716 83.208zm219.779-272.425h-244.915l-3.925-42.539h252.784zm50.57-78.812c0 3.459-2.814 6.273-6.273 6.273h-329.234c-3.459 0-6.273-2.814-6.273-6.273v-22.233c0-3.459 2.814-6.273 6.273-6.273h329.233c3.459 0 6.273 2.814 6.273 6.273v22.233z"/></svg>