<?xml version="1.0" encoding="UTF-8"?>
<svg xmlns="http://www.w3.org/2000/svg" id="Layer_3" data-name="Layer 3" viewBox="0 0 64 64" width="512" height="512"><path d="M47,16H17a16,16,0,0,0,0,32H47a16,16,0,0,0,0-32Zm0,30H17a14,14,0,0,1,0-28H47a14,14,0,0,1,0,28Z"/><path d="M47,20H17a12,12,0,0,0,0,24H47a12,12,0,0,0,0-24ZM7,32A10,10,0,1,1,17,42,10.011,10.011,0,0,1,7,32ZM23.619,42a11.982,11.982,0,0,0,0-20H40.381a11.982,11.982,0,0,0,0,20ZM47,42A10,10,0,1,1,57,32,10.011,10.011,0,0,1,47,42Z"/><path d="M22.91,33H25V31H22.91a5.964,5.964,0,0,0-1.025-2.471l1.479-1.479L21.95,25.636l-1.479,1.479A5.964,5.964,0,0,0,18,26.09V24H16v2.09a5.964,5.964,0,0,0-2.471,1.025L12.05,25.636,10.636,27.05l1.479,1.479A5.964,5.964,0,0,0,11.09,31H9v2h2.09a5.964,5.964,0,0,0,1.025,2.471L10.636,36.95l1.414,1.414,1.479-1.479A5.964,5.964,0,0,0,16,37.91V40h2V37.91a5.964,5.964,0,0,0,2.471-1.025l1.479,1.479,1.414-1.414-1.479-1.479A5.964,5.964,0,0,0,22.91,33ZM17,36a4,4,0,1,1,4-4A4,4,0,0,1,17,36Z"/><path d="M48.662,25.031a1,1,0,0,0-1.155,1.389,4.549,4.549,0,0,1,.428,1.924,4.6,4.6,0,0,1-4.591,4.591,4.538,4.538,0,0,1-1.923-.428,1,1,0,0,0-1.39,1.155,7.095,7.095,0,1,0,8.631-8.631ZM46.9,37a5.087,5.087,0,0,1-4.11-2.089c.183.016.368.024.553.024a6.6,6.6,0,0,0,6.591-6.591c0-.186-.008-.37-.024-.554A5.1,5.1,0,0,1,46.9,37Z"/></svg>
