<svg clip-rule="evenodd" fill-rule="evenodd" height="1.707in" image-rendering="optimizeQuality" shape-rendering="geometricPrecision" text-rendering="geometricPrecision" viewBox="0 0 1707 1707" width="1.707in" xmlns="http://www.w3.org/2000/svg" xmlns:xlink="http://www.w3.org/1999/xlink"><linearGradient id="id0" gradientUnits="userSpaceOnUse" x1="1583.81" x2="122.854" y1="853.335" y2="853.335"><stop offset="0" stop-color="#f071ab"/><stop offset="1" stop-color="#22abe2"/></linearGradient><g id="Layer_x0020_1"><path d="m86 1183v-878c0-19 15-35 35-35h1465c19 0 35 16 35 35v878zm1491 254h-1447c-59 0-107-48-107-107v-87c0-11 9-20 20-20h640v103c0 11 9 19 20 19h301c11 0 20-8 20-19v-103h640c11 0 19 9 19 20v87c0 59-47 107-106 107zm-111-87h-227c-10 0-19-9-19-20s9-19 19-19h227c11 0 20 8 20 19s-9 20-20 20zm-999 0h-227c-10 0-19-9-19-20s9-19 19-19h227c11 0 20 8 20 19s-9 20-20 20zm255-127h262v83h-262zm766-113h-1270c-11 0-19-9-19-20v-727c0-11 8-19 19-19h1270c11 0 20 8 20 19v727c0 11-9 20-20 20zm-182-204h-641c-11 0-20-9-20-19 0-11 9-20 20-20h641c11 0 20 9 20 20 0 10-9 19-20 19zm-891 81c-19 0-34-15-34-35v-131c0-19 15-35 34-35 7 0 12 2 18 5h1l98 65c9 4 15 12 18 21s2 19-3 27c-3 6-9 11-15 14l-98 64c-6 3-12 5-19 5zm5-158v115l88-57zm672-181h-43c-22 0-39-17-39-39v-104c0-21 17-39 39-39h43c21 0 39 18 39 39v104c0 22-18 39-39 39zm-1-143h-42v104h43zm-455 143h-40c-11 0-20-9-20-19v-143c0-11 9-20 20-20h40c34 0 61 28 61 61v61c0 33-27 60-61 60zm-21-39h21c12 0 22-9 22-21v-61c0-12-10-21-22-21h-21zm188 39h-60c-11 0-20-9-20-20v-141c0-11 9-20 20-20h60c11 0 20 9 20 20 0 10-9 19-20 19h-41v32h41c11 0 20 9 20 19 0 11-9 20-20 20h-41v32h41c11 0 20 8 20 19s-9 20-20 20zm170 0c-11 0-20-9-20-20v-83l-18 24c-4 5-9 8-15 8-7 0-12-3-16-8l-18-24v83c0 11-9 20-20 20s-19-9-19-20v-141c0-9 5-16 13-19s17 0 22 7l38 50 37-50c5-7 14-10 22-7s13 10 13 19v141c0 11-8 20-19 20zm-735 423h1231v-688h-1231z" fill="url(#id0)"/></g></svg>