<svg id="Layer_1" viewBox="0 0 64 64" xmlns="http://www.w3.org/2000/svg"><path d="m35.287 41.173c.918-1.373 2.456-2.193 4.113-2.193h3.59c1.584 0 3.04-.72 3.993-1.975l3.081-4.042c.519-.675.65-1.551.354-2.344-.296-.794-.969-1.369-1.799-1.54l-2.684-.561c-.8-.16-1.524-.564-2.087-1.167l-5.57-5.97c-.773-.831-1.817-1.352-2.941-1.468l-5.191-.54c-1.381-.136-2.773.056-4.026.555-.281.117-.628.308-.99.546-2.253 1.496-3.6 4.097-3.6 6.955v12.95c0 .954.512 1.773 1.369 2.192.853.417 1.809.319 2.557-.262l4.861-3.771c.854-.663 1.164-1.792.77-2.809l-4.33-11.128c-.2-.515.055-1.095.569-1.295.515-.2 1.094.055 1.295.569l4.33 11.13c.716 1.85.15 3.904-1.409 5.113l-4.86 3.77c-1.344 1.044-3.13 1.228-4.663.479-1.536-.751-2.49-2.28-2.49-3.989v-8.105c-.198.873-.348 1.726-.406 2.451-.312 1.872-1.112 3.439-2.327 4.618-.417.412-.936.897-1.528 1.451-1.753 1.641-4.122 3.865-6.57 6.71 5.025 7.527 13.592 12.496 23.301 12.496 2.374 0 4.68-.299 6.882-.858-.62-2.608-2.306-8.965-4.058-13.232-.646-1.566-.474-3.338.462-4.737z"/><path d="m32 4c-15.439 0-28 12.561-28 28 0 4.981 1.313 9.658 3.602 13.714 2.365-2.693 4.612-4.8 6.3-6.38.578-.541 1.083-1.014 1.496-1.421.912-.885 1.513-2.07 1.742-3.434.201-2.54 1.514-6.997 2.504-8.563.408-2.922 1.975-5.512 4.382-7.11.475-.312.924-.558 1.338-.73 1.562-.623 3.279-.86 4.983-.692l5.195.541c1.605.166 3.096.909 4.198 2.094l5.569 5.969c.275.295.63.493 1.025.572l2.688.562c1.506.309 2.729 1.355 3.268 2.799.539 1.443.3 3.036-.639 4.259l-3.078 4.038c-1.314 1.73-3.403 2.764-5.585 2.764h-3.59c-1.003 0-1.896.476-2.451 1.305-.564.843-.667 1.913-.274 2.863 1.768 4.308 3.467 10.674 4.127 13.427 11.139-3.699 19.198-14.21 19.198-26.575 0-15.439-12.561-28-28-28z"/></svg>