<svg version="1.1" id="Layer_1" xmlns="http://www.w3.org/2000/svg" xmlns:xlink="http://www.w3.org/1999/xlink" x="0px" y="0px" viewBox="0 0 512 512" style="enable-background:new 0 0 512 512;" xml:space="preserve">
<g>
	<g>
		<g>
			<g>
				<g>
					<g>
						
							<polyline style="fill:none;stroke:#000000;stroke-width:40;stroke-linecap:round;stroke-linejoin:round;stroke-miterlimit:10;" points="&#10;&#9;&#9;&#9;&#9;&#9;&#9;&#9;208.527,163.814 249.17,198.149 303.473,119.36 &#9;&#9;&#9;&#9;&#9;&#9;"/>
					</g>
				</g>
			</g>
		</g>
		<g>
			<g>
				
					<line style="fill:none;stroke:#000000;stroke-width:40;stroke-linecap:round;stroke-linejoin:round;stroke-miterlimit:10;" x1="452.477" y1="43.78" x2="442.886" y2="54.983"/>
			</g>
			<g>
				
					<line style="fill:none;stroke:#000000;stroke-width:40;stroke-linecap:round;stroke-linejoin:round;stroke-miterlimit:10;" x1="492" y1="113.219" x2="473.226" y2="115.008"/>
			</g>
		</g>
		<g>
			<g>
				
					<line style="fill:none;stroke:#000000;stroke-width:40;stroke-linecap:round;stroke-linejoin:round;stroke-miterlimit:10;" x1="59.523" y1="43.78" x2="69.114" y2="54.983"/>
			</g>
			<g>
				
					<line style="fill:none;stroke:#000000;stroke-width:40;stroke-linecap:round;stroke-linejoin:round;stroke-miterlimit:10;" x1="20" y1="113.219" x2="38.774" y2="115.008"/>
			</g>
		</g>
		<g>
			<g>
				<path style="fill:none;stroke:#000000;stroke-width:40;stroke-linecap:round;stroke-linejoin:round;stroke-miterlimit:10;" d="&#10;&#9;&#9;&#9;&#9;&#9;M310.983,492V381.025l73.85,108.647c1.369,2.01,2.836,1.025,2.836-1.419l-1.023-107.436"/>
			</g>
			<g>
				
					<polyline style="fill:none;stroke:#000000;stroke-width:40;stroke-linecap:round;stroke-linejoin:round;stroke-miterlimit:10;" points="&#10;&#9;&#9;&#9;&#9;&#9;492,381.832 446.309,381.832 446.309,492 492,492 &#9;&#9;&#9;&#9;"/>
				
					<line style="fill:none;stroke:#000000;stroke-width:40;stroke-linecap:round;stroke-linejoin:round;stroke-miterlimit:10;" x1="488.631" y1="436.916" x2="446.309" y2="436.916"/>
			</g>
			<g>
				<path style="fill:none;stroke:#000000;stroke-width:40;stroke-linecap:round;stroke-linejoin:round;stroke-miterlimit:10;" d="&#10;&#9;&#9;&#9;&#9;&#9;M92.964,438.053c0,29.728-16.24,53.252-42.006,53.709C42.381,491.915,20.215,492,20.215,492L20,384.106c0,0,19.942,0,30.078,0&#10;&#9;&#9;&#9;&#9;&#9;C78.338,384.106,92.964,408.325,92.964,438.053z"/>
			</g>
			
				<ellipse style="fill:none;stroke:#000000;stroke-width:40;stroke-linecap:round;stroke-linejoin:round;stroke-miterlimit:10;" cx="199.441" cy="436.409" rx="54.718" ry="55.591"/>
		</g>
	</g>
	<path style="fill:none;stroke:#000000;stroke-width:40;stroke-linecap:round;stroke-linejoin:round;stroke-miterlimit:10;" d="&#10;&#9;&#9;M383.05,220.007c8.519-18.109,13.29-38.329,13.29-59.667C396.34,82.832,333.508,20,256,20S115.66,82.832,115.66,160.34&#10;&#9;&#9;S178.492,300.68,256,300.68c19.551,0,38.166-4.003,55.077-11.226"/>
</g>
<g>
</g>
<g>
</g>
<g>
</g>
<g>
</g>
<g>
</g>
<g>
</g>
<g>
</g>
<g>
</g>
<g>
</g>
<g>
</g>
<g>
</g>
<g>
</g>
<g>
</g>
<g>
</g>
<g>
</g>
</svg>