<svg id="Layer_1" enable-background="new 0 0 100 100" viewBox="0 0 100 100" xmlns="http://www.w3.org/2000/svg"><path d="m49.9927139 2.5c-26.2254505.0145757-47.4853434 21.2744694-47.4853434 47.514492 0 26.2108727 21.2598934 47.470768 47.4853439 47.4853401 5.5479622.0145798 11.0522881-.9319611 16.2507019-2.8249512 2.9996796-1.1066971 4.5287247-4.4122086 3.4365997-7.4118881-1.1066971-2.9851151-4.4122009-4.5286407-7.4118881-3.4219437-3.9316483 1.4270096-8.0962448 2.1405106-12.2754135 2.12603-19.8620396 0-35.9671593-16.1051254-35.9671593-35.9671631s16.1051216-35.9671555 35.9671593-35.9671555 35.9671555 16.1051216 35.9671555 35.9671555c-.0145721 4.2956886-.859169 8.5330734-2.4754868 12.5083618-.4805603 1.3979454-1.7619858 2.3589706-3.2326355 2.4172745-2.9268951 0-5.3004379-2.3735466-5.3004379-5.3004417v-9.6251945c.1455765-13.9354553-11.02314-25.3663616-24.9731712-25.5119419-13.9354591-.1601562-25.3662758 11.023138-25.5119457 24.9585934-.1601562 13.9500351 11.023138 25.3662758 24.9585972 25.526432 6.1450386.0583038 12.1152573-2.1113586 16.7604065-6.1303711 3.1162033 4.7470932 8.4020691 7.6156845 14.0665512 7.6156845 6.1595306-.0727921 11.663765-3.8879242 13.8917313-9.6251984 2.1988144-5.3440781 3.3345718-11.0522881 3.3491516-16.8331985-.0436407-26.2108708-21.2890478-47.4562776-47.4999167-47.4999161zm9.4941864 56.9940186c-2.4318504 2.4318504-5.7955742 3.9316483-9.4941864 3.9316483-7.4118919 0-13.4257507-6.0139465-13.4257507-13.4257507 0-7.4118919 6.0138588-13.4258347 13.4257507-13.4258347s13.4257469 6.0139427 13.4257469 13.4258347c0 3.6986159-1.4997978 7.0623397-3.9315605 9.4941024zm-9.4941864-56.9940186c-26.2254505.0145757-47.4853434 21.2744694-47.4853434 47.514492 0 26.2108727 21.2598934 47.470768 47.4853439 47.4853401 5.5479622.0145798 11.0522881-.9319611 16.2507019-2.8249512 2.9996796-1.1066971 4.5287247-4.4122086 3.4365997-7.4118881-1.1066971-2.9851151-4.4122009-4.5286407-7.4118881-3.4219437-3.9316483 1.4270096-8.0962448 2.1405106-12.2754135 2.12603-19.8620396 0-35.9671593-16.1051254-35.9671593-35.9671631s16.1051216-35.9671555 35.9671593-35.9671555 35.9671555 16.1051216 35.9671555 35.9671555c-.0145721 4.2956886-.859169 8.5330734-2.4754868 12.5083618-.4805603 1.3979454-1.7619858 2.3589706-3.2326355 2.4172745-2.9268951 0-5.3004379-2.3735466-5.3004379-5.3004417v-9.6251945c.1455765-13.9354553-11.02314-25.3663616-24.9731712-25.5119419-13.9354591-.1601562-25.3662758 11.023138-25.5119457 24.9585934-.1601562 13.9500351 11.023138 25.3662758 24.9585972 25.526432 6.1450386.0583038 12.1152573-2.1113586 16.7604065-6.1303711 3.1162033 4.7470932 8.4020691 7.6156845 14.0665512 7.6156845 6.1595306-.0727921 11.663765-3.8879242 13.8917313-9.6251984 2.1988144-5.3440781 3.3345718-11.0522881 3.3491516-16.8331985-.0436407-26.2108708-21.2890478-47.4562776-47.4999167-47.4999161zm9.4941864 56.9940186c-2.4318504 2.4318504-5.7955742 3.9316483-9.4941864 3.9316483-7.4118919 0-13.4257507-6.0139465-13.4257507-13.4257507 0-7.4118919 6.0138588-13.4258347 13.4257507-13.4258347s13.4257469 6.0139427 13.4257469 13.4258347c0 3.6986159-1.4997978 7.0623397-3.9315605 9.4941024zm-9.4941864-56.9940186c-26.2254505.0145757-47.4853434 21.2744694-47.4853434 47.514492 0 26.2108727 21.2598934 47.470768 47.4853439 47.4853401 5.5479622.0145798 11.0522881-.9319611 16.2507019-2.8249512 2.9996796-1.1066971 4.5287247-4.4122086 3.4365997-7.4118881-1.1066971-2.9851151-4.4122009-4.5286407-7.4118881-3.4219437-3.9316483 1.4270096-8.0962448 2.1405106-12.2754135 2.12603-19.8620396 0-35.9671593-16.1051254-35.9671593-35.9671631s16.1051216-35.9671555 35.9671593-35.9671555 35.9671555 16.1051216 35.9671555 35.9671555c-.0145721 4.2956886-.859169 8.5330734-2.4754868 12.5083618-.4805603 1.3979454-1.7619858 2.3589706-3.2326355 2.4172745-2.9268951 0-5.3004379-2.3735466-5.3004379-5.3004417v-9.6251945c.1455765-13.9354553-11.02314-25.3663616-24.9731712-25.5119419-13.9354591-.1601562-25.3662758 11.023138-25.5119457 24.9585934-.1601562 13.9500351 11.023138 25.3662758 24.9585972 25.526432 6.1450386.0583038 12.1152573-2.1113586 16.7604065-6.1303711 3.1162033 4.7470932 8.4020691 7.6156845 14.0665512 7.6156845 6.1595306-.0727921 11.663765-3.8879242 13.8917313-9.6251984 2.1988144-5.3440781 3.3345718-11.0522881 3.3491516-16.8331985-.0436407-26.2108708-21.2890478-47.4562776-47.4999167-47.4999161zm9.4941864 56.9940186c-2.4318504 2.4318504-5.7955742 3.9316483-9.4941864 3.9316483-7.4118919 0-13.4257507-6.0139465-13.4257507-13.4257507 0-7.4118919 6.0138588-13.4258347 13.4257507-13.4258347s13.4257469 6.0139427 13.4257469 13.4258347c0 3.6986159-1.4997978 7.0623397-3.9315605 9.4941024z"/></svg>