<svg id="Layer_1" viewBox="0 0 128 128" xmlns="http://www.w3.org/2000/svg" data-name="Layer 1"><path d="m104 8a16 16 0 0 1 16 16v80a16 16 0 0 1 -16 16h-80a16 16 0 0 1 -16-16v-80a16 16 0 0 1 16-16zm0-8h-80a24.07 24.07 0 0 0 -24 24v80a24.07 24.07 0 0 0 24 24h80a24.07 24.07 0 0 0 24-24v-80a24.07 24.07 0 0 0 -24-24z"/><path d="m92.47 32h-56.94a3.53 3.53 0 0 0 -3.53 3.53v56.94a3.53 3.53 0 0 0 3.53 3.53h30.47v-26h-8v-8h8v-8c0-8.27 5.23-12.33 12.61-12.33a71.64 71.64 0 0 1 7.39.33v8h-5a4.83 4.83 0 0 0 -5 5v7h10l-1 8h-9v26h16.47a3.53 3.53 0 0 0 3.53-3.53v-56.94a3.53 3.53 0 0 0 -3.53-3.53z"/></svg>