<svg xmlns="http://www.w3.org/2000/svg" viewBox="0 0 32 32" width="64px" height="64px">
  <path d="M15.9.476a2.14 2.14 0 0 0-.823.218L3.932 6.01c-.582.277-1.005.804-1.15 1.432L.054 19.373c-.13.56-.025 1.147.3 1.627q.057.087.12.168l7.7 9.574c.407.5 1.018.787 1.662.784h12.35c.646.001 1.258-.29 1.664-.793l7.696-9.576c.404-.5.555-1.16.4-1.786L29.2 7.43c-.145-.628-.57-1.155-1.15-1.432L16.9.695A2.14 2.14 0 0 0 15.9.476zm-.063 3.386c.092 0 .18.063.2.14l.687 2.8c.1.456.272.9.506 1.313l.073.123c.067.09.14.2.206.3a3.4 3.4 0 0 1-.054 3.793c-.075.1-.153.202-.196.26l-.05.063a4.3 4.3 0 0 0-.758 1.676l-.508 2.34-.004.088c0 .148-.123.27-.274.27a.27.27 0 0 1-.27-.27l-.004-.088-.5-2.34a4.3 4.3 0 0 0-.757-1.676l-.05-.063c-.043-.058-.12-.158-.196-.26a3.4 3.4 0 0 1-.054-3.792c.065-.104.14-.21.206-.302l.073-.122c.234-.413.406-.857.506-1.313l.687-2.8c.016-.077.105-.14.198-.14zm-5.634 5.027a.27.27 0 0 1 .238.078c.063.065.09.156.07.243l-.574 2.877c-.104.448-.144.908-.12 1.368l.009.142c.01.113.02.24.024.357a3.4 3.4 0 0 1-2.115 3.2l-.1.04c-.094.032-.2.07-.3.108a4.3 4.3 0 0 0-1.478 1.048L3.8 20.634l-.064.058a.27.27 0 0 1-.38-.036.27.27 0 0 1 0-.358l.05-.076 1.476-1.956a4.3 4.3 0 0 0 .677-1.7l.083-.193.19-.468c.14-.4.254-.814.34-1.235l.575-2.878a.27.27 0 0 1 .136-.183.27.27 0 0 1 .228-.023l2.66.893c.43.152.882.24 1.338.263h.143c.114-.003.24 0 .358.006a3.4 3.4 0 0 1 2.697-1.332c.29-.004.577.027.857.093zM21.7 8.89c.28-.066.568-.097.857-.093a3.4 3.4 0 0 1 2.697 1.332c.118-.006.244-.01.358-.006h.143c.456-.024.908-.112 1.338-.263l2.66-.893a.27.27 0 0 1 .32.1c.053.07.066.16.038.243l-.015.046-.574 2.877c.086.42.2.835.34 1.235l.19.468.083.193c.122.584.346 1.144.677 1.7l1.477 1.956.05.076a.27.27 0 0 1-.08.367.27.27 0 0 1-.3.027l-.064-.058-1.858-1.685a4.3 4.3 0 0 0-1.478-1.048c-.1-.038-.209-.076-.3-.108l-.1-.04a3.4 3.4 0 0 1-2.116-3.2c.004-.118.014-.244.024-.357l.01-.142a5.3 5.3 0 0 0-.12-1.368l-.575-2.877a.27.27 0 0 1 .07-.243.27.27 0 0 1 .166-.078zm-10.14 9.066c.164.04.253.14.324.2l.086.072 1.717 1.53c.353.308.653.672.888 1.076l.073.137.053.1.054.1c.23.436.398.9.502 1.38l.534 2.727-.01.06a.27.27 0 0 1-.236.218.27.27 0 0 1-.28-.177l-.03-.063-1.166-2.533a4.3 4.3 0 0 0-1.14-1.593l-.123-.108-.187-.166a3.4 3.4 0 0 1-1.17-2.927 3.4 3.4 0 0 1 .13-.534zm8.882 0c.07.158.115.325.13.534a3.4 3.4 0 0 1-1.17 2.927l-.187.166-.123.108a4.3 4.3 0 0 0-1.14 1.593l-1.166 2.533-.03.063a.27.27 0 0 1-.281.177.27.27 0 0 1-.235-.278l.534-2.727c.104-.48.272-.944.502-1.38l.054-.1.053-.1.073-.137c.235-.404.535-.768.888-1.077l1.717-1.53.086-.072c.07-.06.16-.16.324-.2zm-4.456 2.353c.168 0 .336.023.498.07h.002c.165.054.32.133.46.233l.09.066 2.104 1.588.07.06a.27.27 0 0 1-.152.47h-.08l-2.62.19a4.3 4.3 0 0 0-1.564.392l-.14.065-.14.065c-.487.2-1.002.326-1.527.373l-2.628.19-.077-.007a.27.27 0 0 1-.196-.32.27.27 0 0 1 .238-.203l.08-.02 2.662-.548a4.3 4.3 0 0 0 1.5-.6l.134-.088.14-.093a3.4 3.4 0 0 1 1.892-.573h.002z"/>
</svg>
