<svg height="512" viewBox="0 0 32 32" width="512" xmlns="http://www.w3.org/2000/svg"><g id="GLYPH"><g><path d="m16 32c8.837 0 16-7.163 16-16s-7.163-16-16-16-16 7.163-16 16 7.163 16 16 16zm0-29.809c7.626 0 13.809 6.182 13.809 13.809s-6.183 13.809-13.809 13.809-13.809-6.183-13.809-13.809 6.183-13.809 13.809-13.809z"/><path d="m16 27.597c6.405 0 11.597-5.192 11.597-11.597s-5.192-11.597-11.597-11.597-11.597 5.192-11.597 11.597 5.192 11.597 11.597 11.597zm-3.698-6.123h-2.904v-8.737h2.904zm1.607-8.737h2.904v1.238c.385-.595 1.076-1.443 2.617-1.443 1.91 0 3.343 1.249 3.343 3.933v5.01h-2.903v-4.675c0-1.174-.42-1.975-1.471-1.975-.802 0-1.28.54-1.489 1.062-.077.186-.096.447-.096.708v4.88h-2.904c-.001-.001.038-7.918-.001-8.738zm-3.04-4.212c.993 0 1.605.652 1.624 1.509 0 .839-.631 1.51-1.643 1.51h-.018c-.975 0-1.605-.672-1.605-1.51-.001-.857.649-1.509 1.642-1.509z"/></g></g></svg>