<svg id="Layer_1" height="512" viewBox="0 0 512 512" width="512" xmlns="http://www.w3.org/2000/svg" xmlns:xlink="http://www.w3.org/1999/xlink" data-name="Layer 1"><linearGradient id="GradientFill_1" gradientUnits="userSpaceOnUse" x1="256.003" x2="256.004" y1="441.107" y2="70.886"><stop offset="0" stop-color="#6c54a3"/><stop offset="1" stop-color="#00b1d2"/></linearGradient><path d="m496.533 264.227a59.6 59.6 0 0 0 -51.064-58.908v12.758a47 47 0 0 1 38.483 46.15 6.291 6.291 0 1 0 12.581 0zm-49.993 97.841a9.519 9.519 0 1 0 -9.508 9.53 9.518 9.518 0 0 0 9.508-9.53zm12.6 0a22.141 22.141 0 0 1 -15.824 21.189v16.474a6.29 6.29 0 0 1 -12.58 0v-16.474a22.107 22.107 0 1 1 28.4-21.189zm52.864-42.127v106.1a15.1 15.1 0 0 1 -15.066 15.066h-119.829a15.1 15.1 0 0 1 -15.066-15.066v-106.1a15.085 15.085 0 0 1 15.066-15.059h119.831a15.085 15.085 0 0 1 15.066 15.059zm-134.9-27.653h.415v-28.061a59.477 59.477 0 0 1 25.317-48.671v-114.6h-356.636v211.784h304.22a27.693 27.693 0 0 1 26.689-20.452zm-27.648 113.529h-321.216a28.268 28.268 0 0 1 -28.24-28.239v-17.81h135.969v14.774a13.379 13.379 0 0 0 13.352 13.358h150.392a13.386 13.386 0 0 0 13.366-13.359v-14.773h36.377zm-200.906-31.275a.8.8 0 0 0 .771.778h150.392a.815.815 0 0 0 .779-.778v-14.774h-151.942zm-132.4-27.361h333.31v-21.853h-305.26a10.6 10.6 0 0 1 -10.587-10.587v-215.801a10.6 10.6 0 0 1 10.587-10.58h360.642a10.6 10.6 0 0 1 10.587 10.58v109.85a58.727 58.727 0 0 1 17.459-3.921v-113.387a20.6 20.6 0 0 0 -20.581-20.6h-375.587a20.6 20.6 0 0 0 -20.574 20.6v255.7zm386.7-115.037v60.144h-12.73v-28.061a46.73 46.73 0 0 1 12.73-32.083zm30.047 60.144h-17.468v-69.7a46.617 46.617 0 0 1 17.459-5.086v74.789zm-182.6-156.265a6.282 6.282 0 0 1 3.758 8.066l-47.255 129.811a6.292 6.292 0 1 1 -11.823-4.307l47.25-129.8a6.3 6.3 0 0 1 8.065-3.765zm-80.2 19.089a6.3 6.3 0 0 1 0 8.894l-42.841 42.841 42.841 42.835a6.3 6.3 0 0 1 -8.908 8.908l-47.292-47.3a6.3 6.3 0 0 1 0-8.894l47.292-47.285a6.277 6.277 0 0 1 8.908 0zm165.042 47.288a6.267 6.267 0 0 1 0 8.894l-47.278 47.3a6.3 6.3 0 0 1 -8.915-8.908l42.834-42.835-42.834-42.841a6.3 6.3 0 0 1 8.915-8.894z" fill="url(#GradientFill_1)" fill-rule="evenodd"/></svg>