<svg id="Layer_1" enable-background="new 0 0 100 100" height="512" viewBox="0 0 100 100" width="512" xmlns="http://www.w3.org/2000/svg"><path d="m48.1641388 47.4963913c.6094017-2.7612839-.2196159-5.6022224-2.1957092-7.5763054l-6.326622-7.1060715c-1.9292183-2.1662254-4.6992912-3.4085884-7.6007195-3.4085884s-5.6715012 1.242363-7.6007824 3.4085884l-6.3045235 7.0829391c-1.9981918 1.9972153-2.8271446 4.8381538-2.2178059 7.5994377.6260643 2.8344688 2.650013 5.0700378 5.5546761 6.133255 2.8799419 1.0545464 6.1468639.2286453 8.3204784-2.1086731.5873051-.6311264 1.3856163-.9786758 2.2479572-.9786758.862339 0 1.6606522.3475494 2.2478981.9786758 1.5465736 1.6626091 3.6459045 2.561142 5.7662315 2.561142.8597145 0 1.7230949-.147953 2.554245-.4524689 2.9046632-1.0632171 4.9286729-3.2987861 5.5546762-6.1332549z"/><path d="m37.5064049 24.4494705c.1420937.0150757.2837029.022583.4258003.022583 1.0103569 0 2.0030136-.3755646 2.8933678-1.0992279 1.489994-1.2106209 2.5181122-3.2977448 2.7512169-5.582325.405899-3.9767294-1.6563225-7.4616766-4.5976067-7.7678423-1.1519661-.1221361-2.3033791.2512922-3.3191681 1.0766439-1.489994 1.2106218-2.5181122 3.2977457-2.7512169 5.5822659-.405899 3.9767895 1.6563225 7.4617367 4.5976067 7.7679024z"/><path d="m45.3999863 31.6437397c.574913.3007946 1.2042122.451437 1.8647003.451437.479084 0 .9748344-.0796547 1.4770508-.2394524 1.7381706-.5531235 3.3686714-2.0424442 4.3618164-3.9842358 1.7327995-3.3886929 1.1030121-7.211544-1.4038658-8.521719-.9925957-.519186-2.1483459-.592371-3.3417549-.212534-1.7376213.5526352-3.3686714 2.0424442-4.3623657 3.9842987-1.7322503 3.3881418-1.1024018 7.2109949 1.4044189 8.5222055z"/><path d="m23.2566013 23.3733749c.890358.723114 1.8829536 1.0986786 2.8933105 1.0986786.1416073 0 .2837029-.0075073.4257984-.022583 2.9412861-.3061657 5.0035057-3.7911129 4.5976048-7.7679024-.2330418-2.2845201-1.2612228-4.371644-2.7512131-5.5822659-1.0146923-.8248024-2.1607361-1.1987801-3.31917-1.0766439-2.9406757.3061657-5.0034447 3.7911129-4.598093 7.7678423.2335911 2.2851296 1.2622605 4.3717041 2.7517624 5.5828743z"/><path d="m18.6821308 31.6437397c2.5068798-1.3112106 3.1366673-5.1340637 1.404417-8.5222054-.9936943-1.9418545-2.6247444-3.4316635-4.3623657-3.9842987-1.193409-.379837-2.3490973-.3066521-3.341754.212534-2.5068188 1.3101749-3.1366663 5.1330261-1.4038668 8.521719.993144 1.9417915 2.6236448 3.4311123 4.3618155 3.9842358.5022182.1597977.9980268.2394524 1.4771128.2394524.6604882-.0000001 1.2897263-.1506425 1.8646412-.4514371z"/><path d="m75.5596924 68.7318344c-1.9292755-2.1661606-4.6993561-3.4085236-7.6007767-3.4085236-2.9014282 0-5.671505 1.242363-7.6007233 3.4085236l-6.3045883 7.0830002c-1.998127 1.9971542-2.8271446 4.8380966-2.2177429 7.5994415.6260033 2.834343 2.650013 5.0700378 5.5546761 6.133194 2.8798828 1.0546036 6.1468048.2286453 8.3204765-2.1086121.5872421-.6311264 1.3855591-.9787979 2.2479019-.9787979.8623352 0 1.6606522.3476715 2.2479553.9787979 1.5465088 1.6626664 3.6459046 2.561142 5.7662278 2.561142.8596573 0 1.7230988-.1479568 2.554245-.4525299 2.9046021-1.0631561 4.9286194-3.298851 5.5546799-6.133194.6093369-2.7613449-.2196121-5.6022873-2.1957092-7.5763702z"/><path d="m73.4242859 60.3672905c.1420975.0150795.2836456.0225868.4257431.0225868 1.0104141 0 2.0030136-.3755074 2.8933716-1.0992279 1.4899902-1.2106247 2.5181732-3.2976875 2.7512741-5.5822678.405838-3.9767265-1.6563797-7.4617348-4.5976028-7.7678413-1.1519699-.1221352-2.3033829.2512321-3.3191757 1.0766449-1.4899902 1.2105598-2.5181656 3.2976837-2.7512131 5.5822639-.4058991 3.9767304 1.6563186 7.4616776 4.5976028 7.7678414z"/><path d="m87.617569 55.2676506c-.9926529-.5192451-2.1483383-.5923691-3.3417511-.212532-1.7376251.5525742-3.3686676 2.0424461-4.3623657 3.9842987-1.7322464 3.3880806-1.1024628 7.2109337 1.4044189 8.5222054.574913.3007355 1.2041473.4513779 1.8646393.4513779.4790878 0 .9748917-.0795975 1.4771118-.2393951 1.7381744-.5531235 3.3686752-2.0424423 4.3618164-3.9842949 1.7328033-3.3886301 1.102951-7.2114831-1.4038696-8.52166z"/><path d="m59.174427 59.2911987c.8903542.7231712 1.8830109 1.0986786 2.8933678 1.0986786.1415482 0 .2837067-.0075073.4258003-.0225868 2.941227-.3061638 5.0034447-3.791111 4.5976067-7.7678413-.2331085-2.2845802-1.2612228-4.3717041-2.7512741-5.5822639-1.0146942-.8248634-2.160675-1.1987801-3.3191109-1.0766449-2.9407349.3061066-5.0035057 3.7911148-4.598156 7.7678413.233654 2.2850685 1.2623215 4.371643 2.7517662 5.582817z"/><path d="m54.6000137 67.5616226c2.5068207-1.3112717 3.1366692-5.1341248 1.4044189-8.5222054-.9936943-1.9418526-2.6247444-3.4317245-4.3623657-3.9842987-1.193409-.379837-2.3491592-.3067131-3.3417549.212532-2.5068779 1.3101768-3.1366653 5.1330299-1.4038658 8.5216599.993145 1.9418526 2.6236458 3.4311714 4.3618164 3.9842949.5022163.1597977.9979668.2393951 1.4770508.2393951.6604881.0000001 1.2897873-.1506423 1.8647003-.4513778z"/></svg>