<svg xmlns="http://www.w3.org/2000/svg" version="1.1" xmlns:xlink="http://www.w3.org/1999/xlink" width="512" height="512" x="0" y="0" viewBox="0 0 100 100" style="enable-background:new 0 0 512 512" xml:space="preserve" class=""><g><path d="M74.57 58.585c11.007 2.171 18.474 7.98 22.526 17.287.649 1.501.512 3.317-.38 4.875-2.83 4.952-6 9.718-9.51 14.254-1.342 1.744-3.46 2.696-5.489 2.465-18.391-2.098-37.354-11.047-52.745-26.438S4.632 36.674 2.534 18.283c-.231-2.03.721-4.147 2.465-5.488 4.536-3.51 9.302-6.681 14.254-9.51 1.558-.893 3.374-1.03 4.875-.381 9.307 4.052 15.116 11.519 17.287 22.526.318 1.652-.2 3.46-1.36 4.857l-8.086 9.695c-1.584 1.889-1.917 4.455-.8 6.377 5.506 9.475 12.997 16.966 22.472 22.473 1.922 1.116 4.489.783 6.384-.794l9.689-8.093c1.396-1.16 3.204-1.678 4.856-1.36z" fill="#fc122d" opacity="1" data-original="#000000" class=""></path></g></svg>