<svg height="512" viewBox="0 0 32 32" width="512" xmlns="http://www.w3.org/2000/svg"><g><circle cx="21.652" cy="10.674" r=".737"/><path d="m15.986 13.848c-3.588 0-6.508 1.843-6.508 4.108s2.919 4.107 6.508 4.107 6.508-1.843 6.508-4.107c0-2.265-2.919-4.108-6.508-4.108zm-3.672 3.243c0-.746.607-1.353 1.353-1.353s1.353.607 1.353 1.353-.607 1.353-1.353 1.353-1.353-.607-1.353-1.353zm6.529 3.25c-.026.027-.261.265-.734.494-.61.295-1.329.445-2.137.445-.813 0-1.523-.152-2.111-.452-.458-.234-.675-.479-.698-.506-.086-.101-.128-.229-.118-.362.01-.132.072-.253.173-.339.09-.077.205-.119.323-.119.144 0 .28.062.375.17.002.002.592.614 2.057.614 1.483 0 2.133-.612 2.16-.638.091-.092.217-.145.351-.145.13 0 .253.05.346.141.194.188.2.502.013.697zm-.375-1.897c-.746 0-1.353-.607-1.353-1.353s.607-1.353 1.353-1.353 1.353.607 1.353 1.353-.607 1.353-1.353 1.353z"/><path d="m10.099 14.795c-.112-.038-.23-.058-.35-.058-.596 0-1.08.485-1.08 1.081 0 .208.061.409.173.582.272-.58.701-1.126 1.257-1.605z"/><path d="m23.457 17.501c.02.155.031.307.031.456 0 2.813-3.365 5.101-7.502 5.101s-7.502-2.289-7.502-5.101c0-.154.011-.313.034-.474-.531-.391-.843-1.004-.843-1.664 0-1.144.93-2.074 2.074-2.074.446 0 .88.145 1.237.411 1.286-.782 2.926-1.238 4.649-1.292l1.322-3.755 3.167.757c.298-.565.881-.921 1.529-.921.955 0 1.731.777 1.731 1.731 0 .955-.777 1.731-1.731 1.731-.898 0-1.639-.689-1.723-1.566l-2.333-.558-.913 2.595c1.601.101 3.12.553 4.319 1.286.359-.272.797-.42 1.249-.42 1.144 0 2.074.931 2.074 2.074-.001.672-.323 1.292-.869 1.683z"/><path d="m22.251 14.737c-.128 0-.252.022-.37.065.56.484.989 1.037 1.261 1.623.122-.178.189-.389.189-.607 0-.597-.484-1.081-1.08-1.081z"/></g></svg>