<svg id="Layer_1" enable-background="new 0 0 512 512" height="512" viewBox="0 0 512 512" width="512" xmlns="http://www.w3.org/2000/svg"><path d="m129.284 233.075 225.171-75.529-75.528 225.171-49.046-95.411c-1.146-2.228-2.959-4.041-5.187-5.186zm382.716 22.925c0 141.159-114.841 256-256 256s-256-114.841-256-256 114.841-256 256-256 256 114.841 256 256zm-130.014-125.984c-3.219-3.22-7.985-4.341-12.302-2.892l-275 92.243c-4.574 1.534-7.785 5.659-8.149 10.471-.364 4.811 2.188 9.373 6.479 11.579l117.282 60.289 60.289 117.282c2.066 4.02 6.2 6.514 10.67 6.514.301 0 .605-.011.909-.034 4.812-.364 8.937-3.575 10.471-8.149l92.242-275c1.449-4.319.329-9.084-2.891-12.303z"/></svg>