<svg id="Layer_1" enable-background="new 0 0 512 512" height="512" viewBox="0 0 512 512" width="512" xmlns="http://www.w3.org/2000/svg"><path d="m456.625 300.41h-26.164v-227.237c0-4.511-1.687-8.581-4.875-11.769l-48.53-48.529c-3.189-3.189-7.258-4.875-11.769-4.875h-264.967c-9.178 0-16.644 7.466-16.644 16.644v34.631h-34.631c-9.177 0-16.643 7.466-16.643 16.643v411.439c0 9.177 7.466 16.643 16.643 16.643h313.497c9.178 0 16.644-7.466 16.644-16.643v-11.108h77.439c12.667 0 22.973-10.306 22.973-22.973v-129.893c0-12.667-10.306-22.973-22.973-22.973zm-53.479-238.817h-26.279v-26.279zm-303.469-36.949c0-.343.301-.644.644-.644h260.547v41.271c0 6.794 5.527 12.322 12.321 12.322h41.272v222.817h-35.275v-175.962c0-4.512-1.687-8.582-4.874-11.769l-48.53-48.529c-3.188-3.189-7.258-4.875-11.769-4.875h-214.336zm225.916 61.945 26.279 26.279h-26.279zm37.593 400.768c0 .343-.301.643-.644.643h-313.497c-.343 0-.643-.3-.643-.643v-411.439c0-.343.3-.643.643-.643h260.548v41.271c0 6.794 5.527 12.321 12.321 12.321h41.271v171.543h-80.239c-12.667 0-22.972 10.306-22.972 22.973v129.894c0 12.667 10.305 22.973 22.972 22.973h80.239v11.107zm100.412-34.081c0 3.845-3.128 6.973-6.973 6.973h-173.679c-3.844 0-6.972-3.128-6.972-6.973v-129.893c0-3.845 3.128-6.973 6.972-6.973h173.679c3.845 0 6.973 3.128 6.973 6.973zm-75.162-103.638-21.845 81.525c-.958 3.574-4.19 5.931-7.723 5.931-.686 0-1.382-.089-2.075-.274-4.268-1.144-6.801-5.53-5.657-9.798l21.845-81.525c1.144-4.268 5.532-6.797 9.798-5.657 4.267 1.143 6.8 5.53 5.657 9.798zm-45.799 14.816-28.334 23.876 28.334 23.876c3.379 2.847 3.81 7.894.962 11.273-1.582 1.877-3.844 2.845-6.121 2.845-1.82 0-3.65-.618-5.151-1.882l-35.594-29.994c-1.804-1.52-2.845-3.759-2.845-6.118s1.041-4.598 2.845-6.118l35.594-29.994c3.378-2.848 8.426-2.417 11.272.962 2.847 3.38 2.417 8.426-.962 11.274zm103.047 23.876c0 2.359-1.041 4.598-2.845 6.118l-35.594 29.994c-1.501 1.265-3.331 1.882-5.151 1.882-2.277 0-4.539-.967-6.121-2.845-2.848-3.379-2.417-8.426.962-11.273l28.334-23.876-28.334-23.876c-3.379-2.847-3.81-7.894-.962-11.273 2.847-3.378 7.895-3.81 11.272-.962l35.594 29.994c1.804 1.519 2.845 3.758 2.845 6.117zm-365.417-272.62c0-4.418 3.582-8 8-8h159.324c4.418 0 8 3.582 8 8s-3.582 8-8 8h-159.324c-4.418 0-8-3.581-8-8zm0 55.31c0-4.418 3.582-8 8-8h235.055c4.418 0 8 3.582 8 8s-3.582 8-8 8h-235.055c-4.418 0-8-3.582-8-8zm145.706 276.544c0 4.418-3.582 8-8 8h-129.706c-4.418 0-8-3.582-8-8s3.582-8 8-8h129.706c4.418 0 8 3.582 8 8zm0-110.617c0 4.418-3.582 8-8 8h-129.706c-4.418 0-8-3.582-8-8s3.582-8 8-8h129.706c4.418 0 8 3.581 8 8zm0 55.308c0 4.418-3.582 8-8 8h-129.706c-4.418 0-8-3.582-8-8s3.582-8 8-8h129.706c4.418 0 8 3.582 8 8zm-145.706-110.618c0-4.418 3.582-8 8-8h235.055c4.418 0 8 3.582 8 8s-3.582 8-8 8h-235.055c-4.418 0-8-3.582-8-8zm0-55.309c0-4.418 3.582-8 8-8h235.055c4.418 0 8 3.582 8 8s-3.582 8-8 8h-235.055c-4.418 0-8-3.581-8-8z"/></svg>