<svg height="512" viewBox="0 0 24 24" width="512" xmlns="http://www.w3.org/2000/svg"><g id="Layer_2" data-name="Layer 2"><rect height="18.5" rx="1.75" width="6.5" x="4.25" y="1.25"/><path d="m21 4.25h-9.25v13.75a2.75 2.75 0 0 1 -2.75 2.75h-3a2.75 2.75 0 0 1 -2.75-2.75v-13.75h-.25a1.76 1.76 0 0 0 -1.75 1.75v15a1.76 1.76 0 0 0 1.75 1.75h18a1.76 1.76 0 0 0 1.75-1.75v-15a1.76 1.76 0 0 0 -1.75-1.75zm-7 14.5a.75.75 0 1 1 .75-.75.76.76 0 0 1 -.75.75zm0-3a.75.75 0 1 1 .75-.75.76.76 0 0 1 -.75.75zm3 3a.75.75 0 1 1 .75-.75.76.76 0 0 1 -.75.75zm0-3a.75.75 0 1 1 .75-.75.76.76 0 0 1 -.75.75zm3 3a.75.75 0 1 1 .75-.75.76.76 0 0 1 -.75.75zm0-3a.75.75 0 1 1 .75-.75.76.76 0 0 1 -.75.75zm0-3.5h-6a.75.75 0 0 1 0-1.5h6a.75.75 0 0 1 0 1.5zm0-3h-6a.75.75 0 0 1 0-1.5h6a.75.75 0 0 1 0 1.5z"/></g></svg>