<svg height="512" viewBox="0 0 32 32" width="512" xmlns="http://www.w3.org/2000/svg"><g id="GLYPH"><g><path d="m16 32c8.837 0 16-7.163 16-16s-7.163-16-16-16-16 7.163-16 16 7.163 16 16 16zm0-29.809c7.626 0 13.809 6.182 13.809 13.809s-6.183 13.809-13.809 13.809-13.809-6.183-13.809-13.809 6.183-13.809 13.809-13.809z"/><path d="m16 27.597c6.405 0 11.597-5.192 11.597-11.597s-5.192-11.597-11.597-11.597-11.597 5.192-11.597 11.597 5.192 11.597 11.597 11.597zm-3.338-8.391c-.903-.312-1.714-1.028-1.919-1.702-.062-.218-.041-.229.533-.229l.595-.01-.503-.239c-.596-.301-1.139-.809-1.406-1.328-.195-.374-.441-1.318-.369-1.391.021-.031.236.031.482.114.708.26.8.197.39-.239-.769-.789-1.006-1.961-.636-3.072l.174-.498.677.674c1.386 1.36 3.018 2.169 4.885 2.407l.513.062-.031-.508c-.092-1.318.719-2.521 2.001-2.988.472-.166 1.273-.187 1.797-.042.206.062.595.27.872.456l.503.343.554-.177c.308-.093.719-.249.903-.353.175-.094.329-.145.329-.114 0 .176-.38.778-.698 1.11-.432.467-.308.508.564.197.523-.176.534-.176.431.021-.062.104-.38.467-.719.799-.575.571-.605.633-.605 1.11 0 .736-.349 2.272-.698 3.112-.647 1.578-2.032 3.207-3.418 4.027-1.95 1.151-4.547 1.442-6.733.768-.728-.229-1.981-.81-1.981-.913 0-.031.38-.073.842-.083.965-.02 1.93-.289 2.751-.768l.554-.332z"/></g></g></svg>