<?xml version="1.0" encoding="UTF-8"?>
<!-- Created with Inkscape (http://www.inkscape.org/) -->
<svg width="1e3" height="266.78" version="1.1" xml:space="preserve" xmlns="http://www.w3.org/2000/svg" xmlns:cc="http://creativecommons.org/ns#" xmlns:dc="http://purl.org/dc/elements/1.1/" xmlns:rdf="http://www.w3.org/1999/02/22-rdf-syntax-ns#"><metadata><rdf:RDF><cc:Work rdf:about=""><dc:format>image/svg+xml</dc:format><dc:type rdf:resource="http://purl.org/dc/dcmitype/StillImage"/></cc:Work></rdf:RDF></metadata><defs><clipPath id="clipPath3037"><path d="m411.23 87.642h96v39.95h-96v-39.95z"/></clipPath><clipPath id="clipPath3077"><path d="m411.23 87.642h96v39.95h-96v-39.95z"/></clipPath><clipPath id="clipPath3417"><path d="m411.23 87.642h96v39.95h-96v-39.95z"/></clipPath></defs><g transform="matrix(1.25 0 0 -1.25 -111.65 714.19)"><g clip-path="url(#clipPath3037)"><g transform="translate(661.35 196.93)"><path d="m0 0h-1.463l-0.906-2.257c-0.395 1.101-1.577 2.451-3.574 2.451-1.162 0-2.097-0.458-2.751-1.141 0.251-0.437 0.374-0.942 0.374-1.449-5e-3 -0.814-0.32-1.647-0.866-2.124h-1e-3l-1e-3 -1e-3c-0.114-0.099-0.232-0.186-0.357-0.265 0.49-1.437 1.828-2.563 3.622-2.563 0.594 0 1.156 0.133 1.659 0.371l-0.116-0.29h1.993l0.383 1.051h2.524l0.353-1.051h2.014l-2.887 7.268zm-4.194-4.492c-0.118-0.255-0.589-1.227-1.749-1.227-1.208 0-1.954 1.061-1.954 2.16 0 1.032 0.697 2.122 1.944 2.122 1.003 0 1.552-0.726 1.759-1.267h1.646l-0.718-1.788h-0.928zm2.7-0.251 0.747 2.484h0.019 0.011l0.747-2.484h-1.524zm-15.058 3.384c0.568 0 0.627-0.461 0.667-0.706h1.52v1.202c-0.048 0.076-0.1 0.153-0.164 0.232-0.473 0.559-1.248 0.825-1.965 0.825-1.218 0-2.544-0.776-2.544-2.141s1.267-1.877 1.778-2.083c1.12-0.471 1.424-0.589 1.424-1.071 0-0.333-0.265-0.697-0.707-0.697-0.235 0-0.755 0.147-0.755 0.992h-1.848v-0.013l-1.937 4.875h-1.464l-2.916-7.268h1.994l0.382 1.05h2.525l0.353-1.05h2.014l-0.165 0.416c0.402-0.328 0.989-0.553 1.837-0.553 1.116 0 1.789 0.394 2.158 0.931v2.47c-0.259 0.322-0.675 0.618-1.324 0.91-1.306 0.59-1.502 0.679-1.502 1.11 0 0.344 0.315 0.569 0.639 0.569m-6.024-3.329 0.747 2.485h0.02 9e-3l0.747-2.485h-1.523z" fill="#b6b5b5"/></g><g transform="translate(663.15 196.92)"><path d="m0 0c0.247 0 0.443-0.201 0.443-0.451 0-0.255-0.196-0.453-0.445-0.453-0.246 0-0.447 0.198-0.447 0.453 0 0.25 0.201 0.451 0.447 0.451h2e-3zm-2e-3 -0.07c-0.199 0-0.361-0.171-0.361-0.381 0-0.215 0.162-0.383 0.363-0.383 0.201-2e-3 0.361 0.168 0.361 0.381 0 0.212-0.16 0.383-0.361 0.383h-2e-3zm-0.084-0.644h-0.081v0.504c0.043 6e-3 0.083 0.012 0.143 0.012 0.076 0 0.126-0.017 0.156-0.038 0.03-0.023 0.047-0.057 0.047-0.105 0-0.066-0.044-0.106-0.099-0.122v-4e-3c0.044-8e-3 0.075-0.048 0.085-0.123 0.012-0.078 0.023-0.107 0.032-0.124h-0.085c-0.012 0.017-0.024 0.062-0.034 0.129-0.012 0.064-0.044 0.088-0.108 0.088h-0.056v-0.217zm0 0.279h0.058c0.066 0 0.122 0.024 0.122 0.086 0 0.044-0.031 0.088-0.122 0.088-0.026 0-0.044-1e-3 -0.058-4e-3v-0.17z" fill="#b6b5b5"/></g><g transform="translate(647.27 197)"><path d="m0 0h2.384c1.348 0 1.851-0.207 2.246-0.532 0.571-0.472 0.857-1.191 0.857-1.93 0-0.738-0.306-1.517-0.769-1.912-0.502-0.423-0.995-0.63-2.128-0.63h-0.808v-2.286h-1.782v7.29zm1.782-3.368h0.76c0.353 0 1.161 0 1.161 0.876 0 0.857-0.827 0.857-1.231 0.857h-0.69v-1.733z" fill="#f58113"/></g><g transform="translate(644.94 188.17)"><path d="m0 0h0.664c0.264 0 0.478-0.122 0.478-0.451 0-0.225-0.108-0.399-0.314-0.429v-5e-3c0.187-0.017 0.285-0.112 0.295-0.357 3e-3 -0.113 6e-3 -0.25 0.011-0.355 5e-3 -0.086 0.05-0.128 0.089-0.153h-0.34c-0.029 0.032-0.042 0.086-0.05 0.155-0.01 0.105-8e-3 0.203-0.013 0.331-5e-3 0.191-0.069 0.274-0.274 0.274h-0.245v-0.76h-0.301v1.75zm0.54-0.779c0.193 0 0.301 0.108 0.301 0.284 0 0.186-0.087 0.284-0.285 0.284h-0.255v-0.568h0.239z" fill="#b6b5b5"/></g><g transform="translate(652.7 188.17)"><path d="m0 0h0.665c0.263 0 0.477-0.122 0.477-0.451 0-0.225-0.108-0.399-0.314-0.429v-5e-3c0.187-0.017 0.285-0.112 0.295-0.357 3e-3 -0.113 6e-3 -0.25 0.011-0.355 5e-3 -0.086 0.05-0.128 0.09-0.153h-0.341c-0.028 0.032-0.042 0.086-0.05 0.155-0.01 0.105-8e-3 0.203-0.013 0.331-5e-3 0.191-0.068 0.274-0.274 0.274h-0.245v-0.76h-0.301v1.75zm0.54-0.779c0.193 0 0.301 0.108 0.301 0.284 0 0.186-0.087 0.284-0.284 0.284h-0.256v-0.568h0.239z" fill="#b6b5b5"/></g><g transform="translate(655.87 187.3)"><path d="m0 0c0 0.625 0.19 0.909 0.622 0.909 0.433 0 0.623-0.284 0.623-0.909s-0.19-0.909-0.623-0.909c-0.432 0-0.622 0.284-0.622 0.909m0.944 7e-3c0 0.588-0.143 0.691-0.322 0.691s-0.321-0.103-0.321-0.691c0-0.602 0.142-0.705 0.321-0.705s0.322 0.103 0.322 0.705" fill="#b6b5b5"/></g><g transform="translate(659.12 187.05)"><path d="m0 0v-0.036c0-0.317-0.137-0.625-0.58-0.625-0.474 0-0.622 0.283-0.622 0.908s0.148 0.91 0.625 0.91c0.535 0 0.567-0.368 0.567-0.55v-0.031h-0.301v0.029c0 0.162-0.053 0.348-0.269 0.341-0.221 0-0.322-0.127-0.322-0.691s0.101-0.706 0.322-0.706c0.251 0 0.279 0.26 0.279 0.422v0.029h0.301z" fill="#b6b5b5"/></g><g transform="translate(661.12 188.33)"><path d="m0 0c0.216 0 0.388-0.176 0.388-0.396 0-0.222-0.172-0.396-0.39-0.396-0.215 0-0.391 0.174-0.391 0.396 0 0.22 0.176 0.396 0.391 0.396h2e-3zm-2e-3 -0.061c-0.174 0-0.316-0.15-0.316-0.335 0-0.187 0.142-0.335 0.318-0.335 0.176-2e-3 0.316 0.148 0.316 0.334s-0.14 0.336-0.316 0.336h-2e-3zm-0.074-0.565h-0.07v0.442c0.037 5e-3 0.072 0.01 0.125 0.01 0.067 0 0.111-0.014 0.137-0.033s0.041-0.05 0.041-0.092c0-0.057-0.039-0.092-0.087-0.107v-3e-3c0.039-7e-3 0.065-0.042 0.074-0.108 0.011-0.068 0.021-0.094 0.028-0.109h-0.073c-0.011 0.015-0.022 0.055-0.03 0.113-0.011 0.056-0.039 0.077-0.095 0.077h-0.05v-0.19zm0 0.245h0.051c0.059 0 0.108 0.021 0.108 0.075 0 0.039-0.029 0.077-0.108 0.077-0.022 0-0.038-1e-3 -0.051-3e-3v-0.149z" fill="#b6b5b5"/></g></g><g clip-path="url(#clipPath3077)"><text transform="matrix(1 0 0 -1 368.59 192.96)" style="line-height:0%"><tspan x="0 2.70855 5.9611502 9.2137499 12.46635 13.87035 17.017651 20.053801 23.3064 26.559" y="0" fill="#100f0d" font-family="'Helvetica Neue'" font-size="5.85px" font-stretch="condensed" font-weight="bold" style="line-height:1.25">LOGO USAGE</tspan></text>
<text transform="matrix(1 0 0 -1 368.59 112.03)" fill="#100f0d" font-family="'HelveticaNeue MediumCond'" font-size="4.05px" font-stretch="condensed" font-weight="500" style="line-height:0%"><tspan x="0 1.944 2.9159999 5.0179501 7.2697501 9.0679502 11.31975 13.4946 14.4666 16.264799 18.5166 20.69145" y="0" style="line-height:1.25">2 COLOR LOGO</tspan><tspan x="0 1.944 2.9159999 5.0179501 7.2697501 9.0679502 11.31975 13.4946 14.4666 16.264799 18.5166 20.69145" y="73.349548" style="line-height:1.25">1 COLOR LOGO</tspan></text>
</g><g transform="matrix(8.6147 0 0 8.6147 807.53 565.49)"><path d="m0 0h-4.789l-2.965-7.385c-1.291 3.601-5.159 8.019-11.693 8.019-3.804 0-6.864-1.498-9.003-3.733 0.821-1.431 1.225-3.082 1.225-4.741-0.018-2.666-1.046-5.39-2.836-6.951l-3e-3 -1e-3 -2e-3 -2e-3c-0.373-0.323-0.759-0.611-1.171-0.866 1.604-4.702 5.985-8.388 11.854-8.388 1.945 0 3.785 0.434 5.429 1.214l-0.38-0.949h6.521l1.256 3.44h8.26l1.156-3.44h6.588l-9.447 23.783zm-13.725-14.699c-0.386-0.836-1.929-4.016-5.722-4.016-3.952 0-6.395 3.472-6.395 7.07 0 3.377 2.282 6.944 6.364 6.944 3.279 0 5.078-2.377 5.753-4.146h5.385l-2.348-5.852h-3.037zm8.838-0.822 2.444 8.128h0.062 0.034l2.446-8.128h-4.986zm-49.279 11.075c1.862 0 2.053-1.511 2.185-2.312h4.972v3.934c-0.156 0.25-0.327 0.502-0.536 0.758-1.545 1.831-4.083 2.7-6.43 2.7-3.985 0-8.323-2.54-8.323-7.006 0-4.468 4.144-6.141 5.817-6.816 3.664-1.542 4.659-1.928 4.659-3.504 0-1.09-0.867-2.28-2.313-2.28-0.77 0-2.472 0.481-2.472 3.244h-6.047v-0.04l-6.336 15.951h-4.792l-9.543-23.784h6.525l1.252 3.437h8.26l1.158-3.437h6.589l-0.541 1.362c1.317-1.073 3.239-1.809 6.011-1.809 3.655 0 5.854 1.289 7.062 3.047v8.081c-0.846 1.054-2.207 2.024-4.331 2.977-4.274 1.931-4.915 2.223-4.915 3.634 0 1.125 1.029 1.863 2.089 1.863m-19.71-10.895 2.443 8.133h0.066 0.031l2.443-8.133h-4.983z" fill="#b6b5b5"/></g><g transform="matrix(8.6147 0 0 8.6147 858.23 565.18)"><path d="m0 0c0.808 0 1.451-0.657 1.451-1.477 0-0.832-0.643-1.481-1.457-1.481-0.807 0-1.464 0.649-1.464 1.481 0 0.82 0.657 1.477 1.464 1.477h6e-3zm-6e-3 -0.229c-0.651 0-1.182-0.558-1.182-1.248 0-0.701 0.531-1.253 1.188-1.253 0.657-6e-3 1.181 0.552 1.181 1.247 0 0.696-0.524 1.254-1.181 1.254h-6e-3zm-0.276-2.107h-0.262v1.648c0.137 0.019 0.269 0.038 0.466 0.038 0.249 0 0.413-0.052 0.511-0.124 0.099-0.072 0.152-0.184 0.152-0.342 0-0.216-0.145-0.346-0.322-0.4v-0.012c0.144-0.026 0.243-0.158 0.276-0.401 0.039-0.256 0.077-0.354 0.104-0.407h-0.275c-0.04 0.053-0.079 0.204-0.111 0.42-0.04 0.21-0.145 0.289-0.355 0.289h-0.184v-0.709zm0 0.912h0.19c0.217 0 0.401 0.079 0.401 0.283 0 0.144-0.105 0.288-0.401 0.288-0.085 0-0.144-6e-3 -0.19-0.013v-0.558z" fill="#b6b5b5"/></g><g transform="matrix(8.6147 0 0 8.6147 410.44 567.35)"><path d="m0 0h7.801c4.413 0 6.058-0.675 7.35-1.74 1.868-1.546 2.805-3.899 2.805-6.317 0-2.416-1.002-4.964-2.516-6.255-1.645-1.385-3.256-2.061-6.965-2.061h-2.642v-7.481h-5.833v23.854zm5.833-11.022h2.483c1.159 0 3.803 0 3.803 2.868 0 2.804-2.707 2.804-4.031 2.804h-2.255v-5.672z" fill="#f58113"/></g><g clip-path="url(#clipPath3417)"><text transform="matrix(1 0 0 -1 661.86 -45.137)" style="line-height:0%"><tspan x="0" y="0" fill="#100f0d" font-family="'HelveticaNeue MediumCond'" font-size="4.95px" font-stretch="condensed" font-weight="500">3</tspan></text>
</g></g></svg>
