<svg xmlns="http://www.w3.org/2000/svg" viewBox="0 0 100 85" width="100" height="85">
  <defs>
    <style>
      .elephant-body { fill: #2c3e50; }
      .elephant-accent { fill: #34495e; }
    </style>
  </defs>
  
  <!-- Main body -->
  <ellipse cx="45" cy="55" rx="25" ry="20" class="elephant-body"/>
  
  <!-- Head -->
  <circle cx="35" cy="35" r="18" class="elephant-body"/>
  
  <!-- Trunk -->
  <path d="M25 40 Q15 45 18 55 Q20 60 25 58 Q30 56 28 50 Q26 45 25 40" class="elephant-body"/>
  
  <!-- Ears -->
  <ellipse cx="45" cy="25" rx="12" ry="15" class="elephant-accent" transform="rotate(-20 45 25)"/>
  <ellipse cx="25" cy="30" rx="10" ry="12" class="elephant-accent" transform="rotate(15 25 30)"/>
  
  <!-- Legs -->
  <rect x="30" y="70" width="6" height="12" rx="3" class="elephant-body"/>
  <rect x="40" y="70" width="6" height="12" rx="3" class="elephant-body"/>
  <rect x="50" y="70" width="6" height="12" rx="3" class="elephant-body"/>
  <rect x="60" y="70" width="6" height="12" rx="3" class="elephant-body"/>
  
  <!-- Eye -->
  <circle cx="30" cy="30" r="2" fill="white"/>
  <circle cx="31" cy="29" r="1" fill="black"/>
  
  <!-- Tail -->
  <path d="M70 60 Q75 65 73 70" stroke="#2c3e50" stroke-width="3" fill="none" stroke-linecap="round"/>
</svg>